<?xml version="1.0" encoding="utf-8"?>
<!-- Generator: Adobe Illustrator 18.0.0, SVG Export Plug-In . SVG Version: 6.00 Build 0)  -->
<!DOCTYPE svg PUBLIC "-//W3C//DTD SVG 1.1//EN" "http://www.w3.org/Graphics/SVG/1.1/DTD/svg11.dtd">
<svg version="1.1" id="Layer_1" xmlns="http://www.w3.org/2000/svg" xmlns:xlink="http://www.w3.org/1999/xlink" x="0px" y="0px"
	 viewBox="0 0 512 512" enable-background="new 0 0 512 512" xml:space="preserve">
<g>
	<path fill="#37404D" d="M444.9,66.9h-99.3V47c0-21.9-17.8-39.7-39.7-39.7h-99.3c-21.9,0-39.7,17.8-39.7,39.7v19.9H67.4v19.9h20.5
		l19.9,377.5c0,21.9,17.8,39.7,39.7,39.7H366c21.9,0,39.7-17.8,39.7-39.7l19.5-377.5h19.6L444.9,66.9L444.9,66.9z M186.6,47
		c0-11,8.9-19.9,19.9-19.9h99.3c11,0,19.9,8.9,19.9,19.9v19.9H186.6V47z M385.9,463.2l0,0.5v0.5c0,10.9-8.9,19.9-19.9,19.9H147.5
		c-10.9,0-19.9-8.9-19.9-19.9v-0.5l0-0.5L107.7,86.8h297.7L385.9,463.2z"/>
	<rect x="246.2" y="126.5" fill="#37404D" width="19.9" height="317.9"/>
	<polygon fill="#37404D" points="206.9,443.8 186.6,126.5 166.7,127.8 187.1,445 	"/>
	<polygon fill="#37404D" points="345.6,127.1 325.8,125.9 305.8,443.8 325.6,445 	"/>
</g>
</svg>
