<?xml version="1.0" encoding="utf-8"?>
<!-- Generator: Adobe Illustrator 18.0.0, SVG Export Plug-In . SVG Version: 6.00 Build 0)  -->
<!DOCTYPE svg PUBLIC "-//W3C//DTD SVG 1.1//EN" "http://www.w3.org/Graphics/SVG/1.1/DTD/svg11.dtd">
<svg version="1.1" id="Calque_1" xmlns="http://www.w3.org/2000/svg" xmlns:xlink="http://www.w3.org/1999/xlink" x="0px" y="0px"
	 viewBox="0 0 120 20" enable-background="new 0 0 120 20" xml:space="preserve">
<g>
	<polygon fill="#FFFFFF" points="114.9,11.7 116.6,18.9 109.5,15.6 102.5,19 103.8,11.8 98,6.7 106,6.1 109.6,0 85.4,0 89,6 97,6.8 
		91.2,11.8 92.6,19 85.4,15.6 78.3,19 79.6,11.8 73.8,6.7 81.8,6.1 85.4,0 61.2,0 64.8,6 72.8,6.8 67,11.8 68.4,19 61.2,15.6 
		54.1,19 55.4,11.8 49.6,6.7 57.6,6.1 61.2,0 37,0 40.6,6 48.6,6.8 42.8,11.8 44.2,19 37,15.6 29.9,19 31.2,11.8 25.4,6.7 33.4,6.1 
		36.9,0 12.8,0 16.3,6 24.3,6.8 18.6,11.8 20,19 12.8,15.6 5.7,19 7,11.8 1.2,6.7 9.2,6.1 12.7,0 0,0 0,20 120,20 120,6.7 	"/>
	<polygon fill="#FFFFFF" points="112.7,6 120,6.6 120,0 109.6,0 	"/>
</g>
</svg>
