<?xml version="1.0" encoding="utf-8"?>
<!-- Generator: Adobe Illustrator 18.0.0, SVG Export Plug-In . SVG Version: 6.00 Build 0)  -->
<!DOCTYPE svg PUBLIC "-//W3C//DTD SVG 1.1//EN" "http://www.w3.org/Graphics/SVG/1.1/DTD/svg11.dtd">
<svg version="1.1" id="Layer_1" xmlns="http://www.w3.org/2000/svg" xmlns:xlink="http://www.w3.org/1999/xlink" x="0px" y="0px"
	 viewBox="0 0 32 32" enable-background="new 0 0 32 32" xml:space="preserve">
<g>
	<path fill="#323844" d="M0,0v32h32V0H0z M10.8,30.9c-4.8,0-8.8-2.1-8.8-5.3c0-3.3,3.7-6.6,8.5-6.6c0.5,0,1,0,1.5,0
		c-0.7-0.7-1.2-1.5-1.2-2.5c0-0.6,0.2-1.2,0.4-1.7c-0.3,0-0.5,0.1-0.8,0.1c-3.9,0-6.6-2.8-6.6-6.5C3.8,4.9,7.4,2,11.3,2
		c2.2,0,8.4,0,8.4,0l-1.4,1.4h-3.1c1.8,0,2.7,2.8,2.7,5.1c0,1.9-1,3.3-2.4,4.5c-1.4,1.1-1.7,1.6-1.7,2.6c0,0.8,1.5,2.3,2.3,2.8
		c2.3,1.7,3,3.3,3,5.9C19.2,27.7,16.2,30.9,10.8,30.9z M30.7,16.5h-4.1v4.3h-2.7v-4.3h-4.1v-2.9h4.1V9.2h2.7v4.3h4.1V16.5z"/>
	<path fill="#323844" d="M13.5,20.2c-0.7-0.2-1.4-0.4-2.1-0.4C8,19.8,5,22,5,24.6c0,2.7,2.4,4.9,5.7,4.9c4.6,0,6.3-2.1,6.3-4.7
		c0-0.3,0-0.6-0.1-0.9C16.5,22.3,15.3,21.6,13.5,20.2z"/>
	<path fill="#323844" d="M14.9,8.4c-0.4-3.1-2.5-5.6-4.7-5.6C8,2.8,6.5,5.1,6.9,8.2c0.4,3.1,2.5,5.6,4.7,5.7
		C13.8,14,15.3,11.5,14.9,8.4z"/>
</g>
</svg>
