<?xml version="1.0" encoding="utf-8"?>
<!-- Generator: Adobe Illustrator 18.0.0, SVG Export Plug-In . SVG Version: 6.00 Build 0)  -->
<!DOCTYPE svg PUBLIC "-//W3C//DTD SVG 1.1//EN" "http://www.w3.org/Graphics/SVG/1.1/DTD/svg11.dtd">
<svg version="1.1"
	 id="Layer_1" xmlns:inkscape="http://www.inkscape.org/namespaces/inkscape" xmlns:svg="http://www.w3.org/2000/svg" xmlns:sodipodi="http://sodipodi.sourceforge.net/DTD/sodipodi-0.dtd" xmlns:dc="http://purl.org/dc/elements/1.1/" xmlns:cc="http://creativecommons.org/ns#" xmlns:rdf="http://www.w3.org/1999/02/22-rdf-syntax-ns#"
	 xmlns="http://www.w3.org/2000/svg" xmlns:xlink="http://www.w3.org/1999/xlink" x="0px" y="0px" viewBox="0 0 512 512"
	 enable-background="new 0 0 512 512" xml:space="preserve">
<path fill="#323844" d="M0,0v512h512V0H0z M128.8,489.6H28.6V182.4h100.2V489.6z M78.7,140.4H78c-33.6,0-55.3-23.6-55.3-53.1
	c0-30.1,22.4-53.1,56.7-53.1c34.3,0,55.4,23,56,53.1C135.4,116.8,113.6,140.4,78.7,140.4z M490,489.6H389.8V325.3
	c0-41.3-14.5-69.5-50.7-69.5c-27.7,0-44.2,19-51.4,37.3c-2.7,6.6-3.3,15.7-3.3,24.9v171.6H184.2c0,0,1.3-278.4,0-307.2h100.2v43.5
	c13.3-20.9,37.1-50.7,90.3-50.7c65.9,0,115.3,43.9,115.3,138.3V489.6z"/>
</svg>
