<?xml version="1.0" encoding="utf-8"?>
<!-- Generator: Adobe Illustrator 18.0.0, SVG Export Plug-In . SVG Version: 6.00 Build 0)  -->
<!DOCTYPE svg PUBLIC "-//W3C//DTD SVG 1.1//EN" "http://www.w3.org/Graphics/SVG/1.1/DTD/svg11.dtd">
<svg version="1.1" id="Layer_1" xmlns="http://www.w3.org/2000/svg" xmlns:xlink="http://www.w3.org/1999/xlink" x="0px" y="0px"
	 viewBox="0 0 489.3 494.2" enable-background="new 0 0 489.3 494.2" xml:space="preserve">
<path fill="#FFFFFF" d="M337.5,175.5c0,89.6-72.6,162.3-162.3,162.3C85.6,337.8,13,265.1,13,175.5S85.6,13.3,175.3,13.3
	C264.9,13.3,337.5,85.9,337.5,175.5z M175.3,47.4c-70.7,0-128.1,57.4-128.1,128.1s57.4,128.1,128.1,128.1s128.1-57.4,128.1-128.1
	S246,47.4,175.3,47.4z"/>
<rect x="261.2" y="336" transform="matrix(0.7071 0.7071 -0.7071 0.7071 352.603 -143.2835)" fill="#FFFFFF" width="176.1" height="36"/>
<path fill="#FFFFFF" d="M325.4,355.8c-5.6,5.6-5.6,14.7,0,20.4L427.2,478c5.6,5.6,14.7,5.6,20.4,0l25.5-25.5
	c5.6-5.6,5.6-14.7,0-20.4L371.2,330.3c-5.6-5.6-14.7-5.6-20.4,0L325.4,355.8z"/>
</svg>
