<?xml version="1.0" encoding="utf-8"?>
<!-- Generator: Adobe Illustrator 18.0.0, SVG Export Plug-In . SVG Version: 6.00 Build 0)  -->
<!DOCTYPE svg PUBLIC "-//W3C//DTD SVG 1.1//EN" "http://www.w3.org/Graphics/SVG/1.1/DTD/svg11.dtd">
<svg version="1.1" id="Layer_1" xmlns="http://www.w3.org/2000/svg" xmlns:xlink="http://www.w3.org/1999/xlink" x="0px" y="0px"
	 viewBox="0 0 32 32" enable-background="new 0 0 32 32" xml:space="preserve">
<path fill="#323844" d="M0,0v32h32V0H0z M27.1,12.6c0,0.3,0,0.5,0,0.8c0,7.7-5.9,16.6-16.6,16.6c-3.3,0-6.4-1-8.9-2.6
	C2,27.4,2.5,27.5,3,27.5c2.7,0,5.2-0.9,7.2-2.5c-2.6,0-4.7-1.7-5.4-4.1C5.1,21,5.5,21,5.8,21c0.5,0,1-0.1,1.5-0.2
	c-2.7-0.5-4.7-2.9-4.7-5.7c0,0,0,0,0-0.1c0.8,0.4,1.7,0.7,2.6,0.7c-1.6-1-2.6-2.8-2.6-4.9C2.8,9.8,3,8.8,3.5,8
	c2.9,3.5,7.2,5.9,12,6.1c-0.1-0.4-0.2-0.9-0.2-1.3c0-3.2,2.6-5.8,5.8-5.8c1.7,0,3.2,0.7,4.3,1.8c1.3-0.3,2.6-0.7,3.7-1.4
	c-0.4,1.4-1.4,2.5-2.6,3.2c1.2-0.1,2.3-0.5,3.4-0.9C29.2,10.8,28.2,11.8,27.1,12.6z"/>
</svg>
